<mxfile host="Electron" agent="Mozilla/5.0 (Windows NT 10.0; Win64; x64) AppleWebKit/537.36 (KHTML, like Gecko) draw.io/26.0.4 Chrome/128.0.6613.186 Electron/32.2.5 Safari/537.36" version="26.0.4">
  <diagram name="Страница — 1" id="qB1_RY4LjqDYDQgcgO_I">
    <mxGraphModel dx="1195" dy="697" grid="1" gridSize="10" guides="1" tooltips="1" connect="1" arrows="1" fold="1" page="0" pageScale="1" pageWidth="827" pageHeight="1169" math="0" shadow="0">
      <root>
        <mxCell id="0" />
        <mxCell id="1" parent="0" />
        <mxCell id="6ldMIMyt7JNkO1f6BnIa-64" value="" style="rounded=1;whiteSpace=wrap;html=1;fillColor=none;fontColor=#ffffff;strokeColor=#005700;arcSize=3;dashed=1;fontFamily=Lucida Console;" vertex="1" parent="1">
          <mxGeometry x="80" y="320" width="780" height="370" as="geometry" />
        </mxCell>
        <mxCell id="6ldMIMyt7JNkO1f6BnIa-63" value="" style="rounded=1;whiteSpace=wrap;html=1;fillColor=none;fontColor=#ffffff;strokeColor=#2D7600;arcSize=6;dashed=1;fontFamily=Lucida Console;" vertex="1" parent="1">
          <mxGeometry x="202" y="156" width="500" height="154" as="geometry" />
        </mxCell>
        <mxCell id="6ldMIMyt7JNkO1f6BnIa-61" value="" style="rounded=1;whiteSpace=wrap;html=1;fillColor=none;fontColor=#ffffff;strokeColor=#001DBC;arcSize=6;dashed=1;fontFamily=Lucida Console;" vertex="1" parent="1">
          <mxGeometry x="750" y="371" width="240" height="154" as="geometry" />
        </mxCell>
        <mxCell id="5q2C9MI3frL3qA3EBC_F-27" style="edgeStyle=orthogonalEdgeStyle;rounded=1;orthogonalLoop=1;jettySize=auto;html=1;exitX=0.25;exitY=1;exitDx=0;exitDy=0;entryX=1;entryY=0.5;entryDx=0;entryDy=0;curved=0;fillColor=#fad7ac;strokeColor=#b46504;flowAnimation=1;fontFamily=Lucida Console;" parent="1" source="5q2C9MI3frL3qA3EBC_F-10" target="5q2C9MI3frL3qA3EBC_F-25" edge="1">
          <mxGeometry relative="1" as="geometry" />
        </mxCell>
        <mxCell id="6ldMIMyt7JNkO1f6BnIa-54" style="edgeStyle=orthogonalEdgeStyle;rounded=0;orthogonalLoop=1;jettySize=auto;html=1;fillColor=#d80073;strokeColor=#A50040;flowAnimation=1;exitX=1;exitY=0.75;exitDx=0;exitDy=0;fontFamily=Lucida Console;" edge="1" parent="1" source="5q2C9MI3frL3qA3EBC_F-10" target="5q2C9MI3frL3qA3EBC_F-1">
          <mxGeometry relative="1" as="geometry" />
        </mxCell>
        <mxCell id="6ldMIMyt7JNkO1f6BnIa-56" style="edgeStyle=orthogonalEdgeStyle;rounded=1;orthogonalLoop=1;jettySize=auto;html=1;exitX=0.75;exitY=1;exitDx=0;exitDy=0;entryX=0;entryY=0.5;entryDx=0;entryDy=0;curved=0;fillColor=#0050ef;strokeColor=#001DBC;shadow=0;flowAnimation=1;fontFamily=Lucida Console;" edge="1" parent="1" source="5q2C9MI3frL3qA3EBC_F-10" target="5q2C9MI3frL3qA3EBC_F-4">
          <mxGeometry relative="1" as="geometry" />
        </mxCell>
        <mxCell id="5q2C9MI3frL3qA3EBC_F-10" value="" style="rounded=1;whiteSpace=wrap;html=1;fontFamily=Lucida Console;" parent="1" vertex="1">
          <mxGeometry x="230" y="280" width="110" height="106" as="geometry" />
        </mxCell>
        <mxCell id="pRWb-W4EA4tzWGhU3aUu-15" style="edgeStyle=orthogonalEdgeStyle;rounded=1;orthogonalLoop=1;jettySize=auto;html=1;curved=0;fillColor=#1ba1e2;strokeColor=#006EAF;flowAnimation=1;fontFamily=Lucida Console;" parent="1" source="5q2C9MI3frL3qA3EBC_F-4" target="pRWb-W4EA4tzWGhU3aUu-14" edge="1">
          <mxGeometry relative="1" as="geometry">
            <Array as="points">
              <mxPoint x="787" y="448" />
            </Array>
          </mxGeometry>
        </mxCell>
        <mxCell id="pRWb-W4EA4tzWGhU3aUu-8" value="http" style="edgeStyle=orthogonalEdgeStyle;rounded=1;orthogonalLoop=1;jettySize=auto;html=1;startArrow=none;startFill=0;exitX=0;exitY=0.5;exitDx=0;exitDy=0;curved=0;fillColor=#60a917;strokeColor=#2D7600;flowAnimation=1;fontFamily=Lucida Console;" parent="1" source="pRWb-W4EA4tzWGhU3aUu-17" target="5q2C9MI3frL3qA3EBC_F-10" edge="1">
          <mxGeometry x="-0.2118" y="-12" relative="1" as="geometry">
            <mxPoint as="offset" />
          </mxGeometry>
        </mxCell>
        <mxCell id="pRWb-W4EA4tzWGhU3aUu-14" value="Database" style="image;aspect=fixed;html=1;points=[];align=center;fontSize=12;image=img/lib/azure2/databases/Azure_Database_PostgreSQL_Server.svg;labelPosition=center;verticalLabelPosition=top;verticalAlign=bottom;fontFamily=Lucida Console;" parent="1" vertex="1">
          <mxGeometry x="910" y="410" width="57" height="76" as="geometry" />
        </mxCell>
        <mxCell id="pRWb-W4EA4tzWGhU3aUu-18" value="ws" style="edgeStyle=orthogonalEdgeStyle;rounded=1;orthogonalLoop=1;jettySize=auto;html=1;exitX=1;exitY=0.5;exitDx=0;exitDy=0;startArrow=none;startFill=0;curved=0;fillColor=#60a917;strokeColor=#2D7600;flowAnimation=1;strokeWidth=3;fontFamily=Lucida Console;" parent="1" source="pRWb-W4EA4tzWGhU3aUu-17" target="5q2C9MI3frL3qA3EBC_F-16" edge="1">
          <mxGeometry x="-0.1958" y="12" relative="1" as="geometry">
            <mxPoint as="offset" />
            <mxPoint x="597.4999999999998" y="264.9999999999999" as="targetPoint" />
          </mxGeometry>
        </mxCell>
        <mxCell id="pRWb-W4EA4tzWGhU3aUu-17" value="" style="shape=image;verticalLabelPosition=bottom;labelBackgroundColor=default;verticalAlign=top;aspect=fixed;imageAspect=0;image=https://www.vectorlogo.zone/logos/nginx/nginx-icon.svg;fontFamily=Lucida Console;" parent="1" vertex="1">
          <mxGeometry x="420" y="190" width="64" height="64" as="geometry" />
        </mxCell>
        <mxCell id="pRWb-W4EA4tzWGhU3aUu-20" value="ws/http" style="edgeStyle=orthogonalEdgeStyle;rounded=0;orthogonalLoop=1;jettySize=auto;html=1;startArrow=none;startFill=0;fillColor=#60a917;strokeColor=#2D7600;flowAnimation=1;strokeWidth=3;fontFamily=Lucida Console;" parent="1" source="pRWb-W4EA4tzWGhU3aUu-19" target="pRWb-W4EA4tzWGhU3aUu-17" edge="1">
          <mxGeometry relative="1" as="geometry">
            <mxPoint as="offset" />
          </mxGeometry>
        </mxCell>
        <mxCell id="pRWb-W4EA4tzWGhU3aUu-19" value="" style="sketch=0;outlineConnect=0;fontColor=#232F3E;gradientColor=none;fillColor=#232F3D;strokeColor=none;dashed=0;verticalLabelPosition=bottom;verticalAlign=top;align=center;html=1;fontSize=12;fontStyle=0;aspect=fixed;pointerEvents=1;shape=mxgraph.aws4.users;fontFamily=Lucida Console;" parent="1" vertex="1">
          <mxGeometry x="427" y="30" width="50" height="50" as="geometry" />
        </mxCell>
        <mxCell id="5q2C9MI3frL3qA3EBC_F-1" value="Redis" style="shape=image;verticalLabelPosition=bottom;verticalAlign=top;imageAspect=0;aspect=fixed;image=data:image/svg+xml,PHN2ZyB4bWxucz0iaHR0cDovL3d3dy53My5vcmcvMjAwMC9zdmciIHZpZXdCb3g9IjAgMCAxMjggMTI4Ij48cGF0aCBmaWxsPSIjQTQxRTExIiBkPSJNMTIxLjggOTMuMWMtNi43IDMuNS00MS40IDE3LjctNDguOCAyMS42LTcuNCAzLjktMTEuNSAzLjgtMTcuMyAxUzEzIDk4LjEgNi4zIDk0LjljLTMuMy0xLjYtNS0yLjktNS00LjJWNzhzNDgtMTAuNSA1NS44LTEzLjJjNy44LTIuOCAxMC40LTIuOSAxNy0uNXM0Ni4xIDkuNSA1Mi42IDExLjl2MTIuNWMwIDEuMy0xLjUgMi43LTQuOSA0LjR6Ii8+PHBhdGggZmlsbD0iI0Q4MkMyMCIgZD0iTTEyMS44IDgwLjVDMTE1LjEgODQgODAuNCA5OC4yIDczIDEwMi4xYy03LjQgMy45LTExLjUgMy44LTE3LjMgMS01LjgtMi44LTQyLjctMTcuNy00OS40LTIwLjlDLS4zIDc5LS41IDc2LjggNiA3NC4zYzYuNS0yLjYgNDMuMi0xNyA1MS0xOS43IDcuOC0yLjggMTAuNC0yLjkgMTctLjVzNDEuMSAxNi4xIDQ3LjYgMTguNWM2LjcgMi40IDYuOSA0LjQuMiA3Ljl6Ii8+PHBhdGggZmlsbD0iI0E0MUUxMSIgZD0iTTEyMS44IDcyLjVDMTE1LjEgNzYgODAuNCA5MC4yIDczIDk0LjFjLTcuNCAzLjgtMTEuNSAzLjgtMTcuMyAxQzQ5LjkgOTIuMyAxMyA3Ny40IDYuMyA3NC4yYy0zLjMtMS42LTUtMi45LTUtNC4yVjU3LjNzNDgtMTAuNSA1NS44LTEzLjJjNy44LTIuOCAxMC40LTIuOSAxNy0uNXM0Ni4xIDkuNSA1Mi42IDExLjlWNjhjMCAxLjMtMS41IDIuNy00LjkgNC41eiIvPjxwYXRoIGZpbGw9IiNEODJDMjAiIGQ9Ik0xMjEuOCA1OS44Yy02LjcgMy41LTQxLjQgMTcuNy00OC44IDIxLjYtNy40IDMuOC0xMS41IDMuOC0xNy4zIDFDNDkuOSA3OS42IDEzIDY0LjcgNi4zIDYxLjVzLTYuOC01LjQtLjMtNy45YzYuNS0yLjYgNDMuMi0xNyA1MS0xOS43IDcuOC0yLjggMTAuNC0yLjkgMTctLjVzNDEuMSAxNi4xIDQ3LjYgMTguNWM2LjcgMi40IDYuOSA0LjQuMiA3Ljl6Ii8+PHBhdGggZmlsbD0iI0E0MUUxMSIgZD0iTTEyMS44IDUxYy02LjcgMy41LTQxLjQgMTcuNy00OC44IDIxLjYtNy40IDMuOC0xMS41IDMuOC0xNy4zIDFDNDkuOSA3MC45IDEzIDU2IDYuMyA1Mi44Yy0zLjMtMS42LTUuMS0yLjktNS4xLTQuMlYzNS45czQ4LTEwLjUgNTUuOC0xMy4yYzcuOC0yLjggMTAuNC0yLjkgMTctLjVzNDYuMSA5LjUgNTIuNiAxMS45djEyLjVjLjEgMS4zLTEuNCAyLjYtNC44IDQuNHoiLz48cGF0aCBmaWxsPSIjRDgyQzIwIiBkPSJNMTIxLjggMzguM0MxMTUuMSA0MS44IDgwLjQgNTYgNzMgNTkuOWMtNy40IDMuOC0xMS41IDMuOC0xNy4zIDFTMTMgNDMuMyA2LjMgNDAuMXMtNi44LTUuNC0uMy03LjljNi41LTIuNiA0My4yLTE3IDUxLTE5LjcgNy44LTIuOCAxMC40LTIuOSAxNy0uNXM0MS4xIDE2LjEgNDcuNiAxOC41YzYuNyAyLjQgNi45IDQuNC4yIDcuOHoiLz48cGF0aCBmaWxsPSIjZmZmIiBkPSJNODAuNCAyNi4xbC0xMC44IDEuMi0yLjUgNS44LTMuOS02LjUtMTIuNS0xLjEgOS4zLTMuNC0yLjgtNS4yIDguOCAzLjQgOC4yLTIuN0w3MiAyM3pNNjYuNSA1NC41bC0yMC4zLTguNCAyOS4xLTQuNHoiLz48ZWxsaXBzZSBmaWxsPSIjZmZmIiBjeD0iMzguNCIgY3k9IjM1LjQiIHJ4PSIxNS41IiByeT0iNiIvPjxwYXRoIGZpbGw9IiM3QTBDMDAiIGQ9Ik05My4zIDI3LjdsMTcuMiA2LjgtMTcuMiA2Ljh6Ii8+PHBhdGggZmlsbD0iI0FEMjExNSIgZD0iTTc0LjMgMzUuM2wxOS03LjZ2MTMuNmwtMS45Ljh6Ii8+PC9zdmc+;labelPosition=center;align=center;fontFamily=Lucida Console;" parent="1" vertex="1">
          <mxGeometry x="422" y="330" width="60" height="60" as="geometry" />
        </mxCell>
        <mxCell id="5q2C9MI3frL3qA3EBC_F-4" value="PgBouncer" style="shape=image;verticalLabelPosition=top;verticalAlign=bottom;imageAspect=0;aspect=fixed;image=data:image/svg+xml,PHN2ZyB4bWxucz0iaHR0cDovL3d3dy53My5vcmcvMjAwMC9zdmciIHZpZXdCb3g9IjAgMCAxMjggMTI4Ij48cGF0aCBkPSJNOTMuODA5IDkyLjExMmMuNzg1LTYuNTMzLjU1LTcuNDkyIDUuNDE2LTYuNDMzbDEuMjM1LjEwOGMzLjc0Mi4xNyA4LjYzNy0uNjAyIDExLjUxMy0xLjkzOCA2LjE5MS0yLjg3MyA5Ljg2MS03LjY2OCAzLjc1OC02LjQwOS0xMy45MjQgMi44NzMtMTQuODgxLTEuODQyLTE0Ljg4MS0xLjg0MiAxNC43MDMtMjEuODE1IDIwLjg0OS00OS41MDggMTUuNTQzLTU2LjI4Ny0xNC40Ny0xOC40ODktMzkuNTE3LTkuNzQ2LTM5LjkzNi05LjUybC0uMTM0LjAyNWMtMi43NTEtLjU3MS01LjgzLS45MTItOS4yODktLjk2OC02LjMwMS0uMTA0LTExLjA4MiAxLjY1Mi0xNC43MDkgNC40MDIgMCAwLTQ0LjY4My0xOC40MDktNDIuNjA0IDIzLjE1MS40NDIgOC44NDEgMTIuNjcyIDY2Ljg5OCAyNy4yNiA0OS4zNjIgNS4zMzItNi40MTIgMTAuNDg0LTExLjgzNCAxMC40ODQtMTEuODM0IDIuNTU4IDEuNjk5IDUuNjIyIDIuNTY3IDguODM0IDIuMjU1bC4yNDktLjIxMmMtLjA3OC43OTYtLjA0NCAxLjU3NS4wOTkgMi40OTctMy43NTcgNC4xOTktMi42NTMgNC45MzYtMTAuMTY2IDYuNDgyLTcuNjAyIDEuNTY2LTMuMTM2IDQuMzU1LS4yMjEgNS4wODQgMy41MzUuODg0IDExLjcxMiAyLjEzNiAxNy4yMzgtNS41OThsLS4yMi44ODJjMS40NzQgMS4xOCAxLjM3NSA4LjQ3NyAxLjU4MyAxMy42OS4yMDkgNS4yMTQuNTU4IDEwLjA3OSAxLjYyMSAxMi45NDggMS4wNjMgMi44NjggMi4zMTcgMTAuMjU2IDEyLjE5MSA4LjE0IDguMjUyLTEuNzY0IDE0LjU2MS00LjMwOSAxNS4xMzYtMjcuOTg1Ii8+PHBhdGggZD0iTTc1LjQ1OCAxMjUuMjU2Yy00LjM2NyAwLTcuMjExLTEuNjg5LTguOTM4LTMuMzItMi42MDctMi40Ni0zLjY0MS01LjYyOS00LjI1OS03LjUyMmwtLjI2Ny0uNzljLTEuMjQ0LTMuMzU4LTEuNjY2LTguMTkzLTEuOTE2LTE0LjQxOS0uMDM4LS45MzUtLjA2NC0xLjg5OC0uMDkzLTIuOTE5LS4wMjEtLjc0Ny0uMDQ3LTEuNjg0LS4wODUtMi42NjRhMTguOCAxOC44IDAgMDEtNC45NjIgMS41NjhjLTMuMDc5LjUyNi02LjM4OS4zNTYtOS44NC0uNTA3LTIuNDM1LS42MDktNC45NjUtMS44NzEtNi40MDctMy44Mi00LjIwMyAzLjY4MS04LjIxMiAzLjE4Mi0xMC4zOTYgMi40NTMtMy44NTMtMS4yODUtNy4zMDEtNC44OTYtMTAuNTQyLTExLjAzNy0yLjMwOS00LjM3NS00LjU0Mi0xMC4wNzUtNi42MzgtMTYuOTQzLTMuNjUtMTEuOTYtNS45NjktMjQuNTU3LTYuMTc1LTI4LjY5M0M0LjI5MiAyMy42OTggNy43NzcgMTQuNDQgMTUuMjk2IDkuMTI5IDI3LjE1Ny43NTEgNDUuMTI4IDUuNjc4IDUxLjY4IDcuOTE1YzQuNDAyLTIuNjUzIDkuNTgxLTMuOTQ0IDE1LjQzMy0zLjg1MSAzLjE0My4wNTEgNi4xMzYuMzI3IDguOTE2LjgyMyAyLjktLjkxMiA4LjYyOC0yLjIyMSAxNS4xODUtMi4xMzkgMTIuMDgxLjE0NCAyMi4wOTIgNC44NTIgMjguOTQ5IDEzLjYxNSA0Ljg5NCA2LjI1MiAyLjQ3NCAxOS4zODEuNTk3IDI2LjY1MS0yLjY0MiAxMC4yMjYtNy4yNzEgMjEuMTAyLTEyLjk1NyAzMC41NyAxLjU0NC4wMTEgMy43ODEtLjE3NCA2Ljk2MS0uODMxIDYuMjc0LTEuMjk1IDguMTA5IDIuMDY5IDguNjA3IDMuNTc1IDEuOTk1IDYuMDQyLTYuNjc3IDEwLjYwOC05LjM4MiAxMS44NjQtMy40NjYgMS42MDktOS4xMTcgMi41ODktMTMuNzQ1IDIuMzc3bC0uMjAyLS4wMTMtMS4yMTYtLjEwNy0uMTIgMS4wMTQtLjExNi45OTFjLS4zMTEgMTEuOTk5LTIuMDI1IDE5LjU5OC01LjU1MiAyNC42MTktMy42OTcgNS4yNjQtOC44MzUgNi43MzktMTMuMzYxIDcuNzA5LTEuNTQ0LjMzLTIuOTQ3LjQ3NC00LjIxOS40NzR6bS05LjE5LTQzLjY3MWMyLjgxOSAyLjI1NiAzLjA2NiA2LjUwMSAzLjI4NyAxNC40MzQuMDI4Ljk5LjA1NCAxLjkyNy4wODkgMi44MDIuMTA2IDIuNjUuMzU1IDguODU1IDEuMzI3IDExLjQ3Ny4xMzcuMzcxLjI2Ljc0Ny4zOSAxLjE0NiAxLjA4MyAzLjMxNiAxLjYyNiA0Ljk3OSA2LjMwOSAzLjk3OCAzLjkzMS0uODQzIDUuOTUyLTEuNTk5IDcuNTM0LTMuODUxIDIuMjk5LTMuMjc0IDMuNTg1LTkuODYgMy44MjEtMTkuNTc1bDQuNzgzLjExNi00Ljc1LS41Ny4xNC0xLjE4NmMuNDU1LTMuOTEuNzgzLTYuNzM0IDMuMzk2LTguNjAyIDIuMDk3LTEuNDk4IDQuNDg2LTEuMzUzIDYuMzg5LTEuMDEtMi4wOTEtMS41OC0yLjY2OS0zLjQzMy0yLjgyMy00LjE5M2wtLjM5OS0xLjk2NSAxLjEyMS0xLjY2M2M2LjQ1Ny05LjU4IDExLjc4MS0yMS4zNTQgMTQuNjA5LTMyLjMwNCAyLjkwNi0xMS4yNTEgMi4wMi0xNy4yMjYgMS4xMzQtMTguMzU2LTExLjcyOS0xNC45ODctMzIuMDY4LTguNzk5LTM0LjE5Mi04LjA5N2wtLjM1OS4xOTQtMS44LjMzNS0uOTIyLS4xOTFjLTIuNTQyLS41MjgtNS4zNjYtLjgyLTguMzkzLS44NjktNC43NTYtLjA4LTguNTkzIDEuMDQ0LTExLjczOSAzLjQzMWwtMi4xODMgMS42NTUtMi41MzMtMS4wNDNjLTUuNDEyLTIuMjEzLTIxLjMwOC02LjY2Mi0yOS42OTYtLjcyMS00LjY1NiAzLjI5OC02Ljc3NyA5Ljc2LTYuMzA1IDE5LjIwNy4xNTYgMy4xMTkgMi4yNzUgMTQuOTI2IDUuNzcxIDI2LjM3NyA0LjgzMSAxNS44MjUgOS4yMjEgMjEuMDgyIDExLjA1NCAyMS42OTMuMzIuMTA4IDEuMTUtLjUzNyAxLjk3Ni0xLjUyOWEyNzAuNzA4IDI3MC43MDggMCAwMTEwLjY5NC0xMi4wN2wyLjc3LTIuOTE1IDMuMzQ5IDIuMjI1YzEuMzUuODk3IDIuODM5IDEuNDA2IDQuMzY4IDEuNTAybDcuOTg3LTYuODEyLTEuMTU3IDExLjgwOGMtLjAyNi4yNjUtLjAzOS42MjYuMDY1IDEuMjk2bC4zNDggMi4yMzgtMS41MSAxLjY4OC0uMTc0LjE5NiA0LjM4OCAyLjAyNSAxLjgzNi0yLjMwMXoiLz48cGF0aCBmaWxsPSIjMzM2NzkxIiBkPSJNMTE1LjczMSA3Ny40NGMtMTMuOTI1IDIuODczLTE0Ljg4Mi0xLjg0Mi0xNC44ODItMS44NDIgMTQuNzAzLTIxLjgxNiAyMC44NDktNDkuNTEgMTUuNTQ1LTU2LjI4N0MxMDEuOTI0LjgyMyA3Ni44NzUgOS41NjYgNzYuNDU3IDkuNzkzbC0uMTM1LjAyNGMtMi43NTEtLjU3MS01LjgzLS45MTEtOS4yOTEtLjk2Ny02LjMwMS0uMTAzLTExLjA4IDEuNjUyLTE0LjcwNyA0LjQwMiAwIDAtNDQuNjg0LTE4LjQwOC00Mi42MDYgMjMuMTUxLjQ0MiA4Ljg0MiAxMi42NzIgNjYuODk5IDI3LjI2IDQ5LjM2MyA1LjMzMi02LjQxMiAxMC40ODMtMTEuODM0IDEwLjQ4My0xMS44MzQgMi41NTkgMS42OTkgNS42MjIgMi41NjcgOC44MzMgMi4yNTVsLjI1LS4yMTJjLS4wNzguNzk2LS4wNDIgMS41NzUuMSAyLjQ5Ny0zLjc1OCA0LjE5OS0yLjY1NCA0LjkzNi0xMC4xNjcgNi40ODItNy42MDIgMS41NjYtMy4xMzYgNC4zNTUtLjIyIDUuMDg0IDMuNTM0Ljg4NCAxMS43MTIgMi4xMzYgMTcuMjM3LTUuNTk4bC0uMjIxLjg4MmMxLjQ3MyAxLjE4IDIuNTA3IDcuNjcyIDIuMzM0IDEzLjU1Ny0uMTc0IDUuODg1LS4yOSA5LjkyNi44NzEgMTMuMDgyIDEuMTYgMy4xNTYgMi4zMTYgMTAuMjU2IDEyLjE5MiA4LjE0IDguMjUyLTEuNzY4IDEyLjUyOC02LjM1MSAxMy4xMjQtMTMuOTk1LjQyMi01LjQzNSAxLjM3Ny00LjYzMSAxLjQzOC05LjQ5bC43NjctMi4zYy44ODQtNy4zNjcuMTQtOS43NDMgNS4yMjUtOC42MzhsMS4yMzUuMTA4YzMuNzQyLjE3IDguNjM5LS42MDIgMTEuNTE0LTEuOTM4IDYuMTktMi44NzEgOS44NjEtNy42NjcgMy43NTgtNi40MDh6Ii8+PHBhdGggZmlsbD0iI2ZmZiIgZD0iTTc1Ljk1NyAxMjIuMzA3Yy04LjIzMiAwLTEwLjg0LTYuNTE5LTExLjkwNy05LjE4NS0xLjU2Mi0zLjkwNy0xLjg5OS0xOS4wNjktMS41NTEtMzEuNTAzYTEuNTkgMS41OSAwIDAxMS42NC0xLjU1IDEuNTk0IDEuNTk0IDAgMDExLjU1IDEuNjM5Yy0uNDAxIDE0LjM0MS4xNjggMjcuMzM3IDEuMzI0IDMwLjIyOSAxLjgwNCA0LjUwOSA0LjU0IDguNDUzIDEyLjI3NSA2Ljc5NiA3LjM0My0xLjU3NSAxMC4wOTMtNC4zNTkgMTEuMzE4LTExLjQ2Ljk0LTUuNDQ5IDIuNzk5LTIwLjk1MSAzLjAyOC0yNC4wMWExLjU5MyAxLjU5MyAwIDAxMS43MS0xLjQ3MiAxLjU5NyAxLjU5NyAwIDAxMS40NzIgMS43MWMtLjIzOSAzLjE4NS0yLjA4OSAxOC42NTctMy4wNjUgMjQuMzE1LTEuNDQ2IDguMzg3LTUuMTg1IDEyLjE5MS0xMy43OTQgMTQuMDM3LTEuNDYzLjMxMy0yLjc5Mi40NTMtNCAuNDU0ek0zMS4zMjEgOTAuNDY2YTYuNzEgNi43MSAwIDAxLTIuMTE2LS4zNWMtNS4zNDctMS43ODQtMTAuNDQtMTAuNDkyLTE1LjEzOC0yNS44ODUtMy41NzYtMTEuNzE3LTUuODQyLTIzLjk0Ny02LjA0MS0yNy45MjItLjU4OS0xMS43ODQgMi40NDUtMjAuMTIxIDkuMDItMjQuNzc4IDEzLjAwNy05LjIxNiAzNC44ODgtLjQ0IDM1LjgxMy0uMDYyYTEuNTk2IDEuNTk2IDAgMDEtMS4yMDcgMi45NTVjLS4yMTEtLjA4Ni0yMS4xOTMtOC40OTItMzIuNzY4LS4yODUtNS42MjIgMy45ODYtOC4yMDMgMTEuMzkyLTcuNjcyIDIyLjAxMS4xNjcgMy4zNDkgMi4yODQgMTUuMjg1IDUuOTA2IDI3LjE0OSA0LjE5NCAxMy43NDIgOC45NjcgMjIuNDEzIDEzLjA5NiAyMy43OS42NDguMjE2IDIuNjIuODczIDUuNDM5LTIuNTE3QTI0NS4yNzIgMjQ1LjI3MiAwIDAxNDUuODggNzMuMDQ2YTEuNTk2IDEuNTk2IDAgMDEyLjMwNCAyLjIwOGMtLjA0OC4wNS00Ljg0NyA1LjA2Ny0xMC4wNzcgMTEuMzU5LTIuNDc3IDIuOTc5LTQuODUxIDMuODUzLTYuNzg2IDMuODUzem02OS40MjktMTMuNDQ1YTEuNTk2IDEuNTk2IDAgMDEtMS4zMjItMi40ODdjMTQuODYzLTIyLjA1NSAyMC4wOC00OC43MDQgMTUuNjEyLTU0LjQxNC01LjYyNC03LjE4Ni0xMy41NjUtMTAuOTM5LTIzLjYwNC0xMS4xNTYtNy40MzMtLjE2LTEzLjM0MSAxLjczOC0xNC4zMDcgMi4wNjlsLS4yNDMuMDk5Yy0uOTcxLjMwNS0xLjcxNi0uMjI3LTEuOTk3LS44NDlhMS42IDEuNiAwIDAxLjYzMS0yLjAyNWMuMDQ2LS4wMjcuMTkyLS4wODkuNDI5LS4xNzZsLS4wMjEuMDA2LjAyMS0uMDA3YzEuNjQxLS42MDEgNy42MzktMi40IDE1LjA2OC0yLjMxNSAxMS4xMDguMTE4IDIwLjI4NCA0LjQwMSAyNi41MzQgMTIuMzg4IDIuOTU3IDMuNzc5IDIuOTY0IDEyLjQ4NS4wMTkgMjMuODg3LTMuMDAyIDExLjYyNS04LjY1MSAyNC4xMTgtMTUuNDk3IDM0LjI3Ny0uMzA2LjQ1Ny0uODEuNzAzLTEuMzIzLjcwM3ptLjc2IDEwLjIxYy0yLjUzOCAwLTQuODEzLS4zNTgtNi4xNzUtMS4xNzQtMS40LS44MzktMS42NjctMS45NzktMS43MDItMi41ODQtLjM4Mi02LjcxIDMuMzItNy44NzggNS4yMDgtOC40MTEtLjI2My0uMzk4LS42MzctLjg2Ni0xLjAyNC0xLjM0OS0xLjEwMS0xLjM3Ni0yLjYwOS0zLjI2LTMuNzcxLTYuMDc4LS4xODItLjQ0LS43NTItMS40NjMtMS40MTItMi42NDgtMy41NzktNi40MTgtMTEuMDI2LTE5Ljc3My02LjI0Mi0yNi42MTIgMi4yMTQtMy4xNjUgNi42MjMtNC40MTEgMTMuMTE5LTMuNzE2Qzk3LjYgMjguODM3IDg4LjUgMTAuNjI1IDY2LjkwNyAxMC4yNzFjLTYuNDk0LS4xMDgtMTEuODIgMS44ODktMTUuODIyIDUuOTMtOC45NiA5LjA0OS04LjYzNiAyNS40MjItOC42MzEgMjUuNTg2YTEuNTk1IDEuNTk1IDAgMTEtMy4xOS4wODRjLS4wMi0uNzI3LS4zNTQtMTcuOTA5IDkuNTU0LTI3LjkxNkM1My40NTUgOS4yNzIgNTkuNTU5IDYuOTYgNjYuOTYgNy4wODFjMTMuODE0LjIyNyAyMi43MDYgNy4yNSAyNy43MzIgMTMuMTAxIDUuNDc5IDYuMzc3IDguMTY1IDEzLjQxMSA4LjM4NiAxNS43NTkuMTY1IDEuNzQ2LTEuMDg4IDIuMDk1LTEuMzQxIDIuMTQ3bC0uNTc2LjAxM2MtNi4zNzUtMS4wMjEtMTAuNDY1LS4zMTItMTIuMTU2IDIuMTA0LTMuNjM5IDUuMjAxIDMuNDA2IDE3LjgzNCA2LjQxNCAyMy4yMjkuNzY4IDEuMzc2IDEuMzIyIDIuMzcxIDEuNTc2IDIuOTg1Ljk4OCAyLjM5NiAyLjI3NyA0LjAwNiAzLjMxMiA1LjMuOTExIDEuMTM4IDEuNyAyLjEyNSAxLjk4MiAzLjI4My4xMzEuMjMgMS45OSAyLjk4IDEzLjAyMS43MDMgMi43NjUtLjU3IDQuNDIzLS4wODMgNC45MyAxLjQ1Ljk5NyAzLjAxNS00LjU5NyA2LjUzMi03LjY5NCA3Ljk3LTIuNzc1IDEuMjktNy4yMDQgMi4xMDYtMTEuMDM2IDIuMTA2em0tNC42OTYtNC4wMjFjLjM1LjM1MyAyLjEwMS45NjIgNS43MjcuODA2IDMuMjI0LS4xMzggNi42MjQtLjgzOSA4LjY2NC0xLjc4NiAyLjYwOS0xLjIxMiA0LjM1MS0yLjU2NyA1LjI1My0zLjQ5MmwtLjUuMDkyYy03LjA1MyAxLjQ1Ni0xMi4wNDIgMS4yNjItMTQuODI4LS41NzdhNi4xNjIgNi4xNjIgMCAwMS0uNTQtLjQwMWMtLjMwMi4xMTktLjU4MS4xOTctLjc4LjI1My0xLjU4LjQ0My0zLjIxNC45MDItMi45OTYgNS4xMDV6bS00NS41NjIgOC45MTVjLTEuNzUyIDAtMy41OTYtLjIzOS01LjQ3OS0uNzEtMS45NTEtLjQ4OC01LjI0LTEuOTU3LTUuMTktNC4zNy4wNTctMi43MDcgMy45OTQtMy41MTkgNS40NzYtMy44MjQgNS4zNTQtMS4xMDMgNS43MDMtMS41NDUgNy4zNzYtMy42Ny40ODgtLjYxOSAxLjA5NS0xLjM5IDEuOTIzLTIuMzE0IDEuMjI5LTEuMzc2IDIuNTcyLTIuMDczIDMuOTkyLTIuMDczLjk4OSAwIDEuOC4zMzUgMi4zMzYuNTU4IDEuNzA4LjcwOCAzLjEzMyAyLjQyIDMuNzE5IDQuNDY3LjUyOSAxLjg0Ny4yNzYgMy42MjUtLjcxIDUuMDA2LTMuMjM3IDQuNTMzLTcuODg2IDYuOTMtMTMuNDQzIDYuOTN6bS03LjIyMi00Ljk0M2MuNDgxLjM3MiAxLjQ0NS44NjkgMi41MTggMS4xMzcgMS42MzEuNDA4IDMuMjEzLjYxNSA0LjcwNS42MTUgNC41NDYgMCA4LjE5Ni0xLjg4MiAxMC44NDctNS41OTQuNTUzLS43NzQuMzg3LTEuNzU3LjIzOS0yLjI3NC0uMzEtMS4wODMtMS4wOC0yLjA2OC0xLjg3My0yLjM5Ny0uNDMtLjE3OC0uNzg3LS4zMTQtMS4xMTUtLjMxNC0uMTc2IDAtLjcxMiAwLTEuNjE0IDEuMDA5YTQxLjE0NiA0MS4xNDYgMCAwMC0xLjc5NCAyLjE2MmMtMi4wODQgMi42NDYtMy4wMzkgMy41NDQtOS4yMzkgNC44MjEtMS41MTMuMzEtMi4yODkuNjI2LTIuNjc0LjgzNXptMTIuMjY5LTcuMzZhMS41OTYgMS41OTYgMCAwMS0xLjU3NS0xLjM1NCA4LjIxOCA4LjIxOCAwIDAxLS4wOC0uNzk5Yy00LjA2NC0uMDc2LTcuOTg1LTEuODItMTAuOTYyLTQuOTI2LTMuNzY0LTMuOTI3LTUuNDc3LTkuMzY4LTQuNjk5LTE0LjkyNy44NDUtNi4wMzcuNTI5LTExLjM2Ni4zNTktMTQuMjI5LS4wNDctLjc5Ni0uMDgxLTEuMzcxLS4wNzktMS43NjkuMDAzLS41MDUuMDEzLTEuODQ0IDQuNDg5LTQuMTEzIDEuNTkyLS44MDcgNC43ODQtMi4yMTUgOC4yNzEtMi41NzYgNS43NzctLjU5NyA5LjU4NSAxLjk3NiAxMC43MjUgNy4yNDYgMy4wNzcgMTQuMjI4LjI0NCAyMC41MjEtMS44MjUgMjUuMTE3LS4zODUuODU2LS43NDkgMS42NjQtMS4wNCAyLjQ0N2wtLjI1Ny42OWMtMS4wOTMgMi45MzEtMi4wMzggNS40NjMtMS43NDggNy4zNTRhMS41OTUgMS41OTUgMCAwMS0xLjMzNSAxLjgxOWwtLjI0NC4wMnpNNDIuNDY0IDQyLjI2bC4wNjIgMS4xMzljLjE3NiAyLjk3NC41MDQgOC41MDgtLjM4NCAxNC44Ni0uNjQxIDQuNTg1Ljc1OSA5LjA2IDMuODQzIDEyLjI3NiAyLjQzNyAyLjU0MiA1LjY0NCAzLjk0NSA4Ljk0IDMuOTQ1aC4wNjhjLjM2OS0xLjU1NS45ODItMy4xOTcgMS42NDItNC45NjZsLjI1NS0uNjg2Yy4zMjktLjg4NC43MTQtMS43NCAxLjEyMi0yLjY0NiAxLjk5MS00LjQyNCA0LjQ3LTkuOTMxIDEuNjE1LTIzLjEzMi0uNTY1LTIuNjE1LTEuOTM2LTQuMTI4LTQuMTg5LTQuNjI3LTQuNjI4LTEuMDIyLTExLjUyNSAyLjQ1OS0xMi45NzQgMy44Mzd6bTkuNjMtLjY3N2MtLjA4LjU2NCAxLjAzMyAyLjA3IDIuNDg1IDIuMjcxIDEuNDQ5LjIwMyAyLjY4OS0uOTc1IDIuNzY4LTEuNTM5LjA3OS0uNTY0LTEuMDMzLTEuMTg2LTIuNDg1LTEuMzg4LTEuNDUxLS4yMDItMi42OTEuMDkyLTIuNzY4LjY1NnptMi44MTggMi44MjZsLS40MDctLjAyOGMtLjktLjEyNS0xLjgxLS42OTItMi40MzMtMS41MTgtLjIxOS0uMjktLjU3Ni0uODUyLS41MDUtMS4zNTQuMTAxLS43MzYuOTk5LTEuMTc3IDIuNC0xLjE3Ny4zMTMgMCAuNjM5LjAyMy45NjcuMDY5Ljc2Ni4xMDYgMS40NzcuMzI3IDIuMDAyLjYyLjkxLjUwOC45NzcgMS4wNzUuOTM2IDEuMzY4LS4xMTIuODEzLTEuNDA1IDIuMDItMi45NiAyLjAyem0tMi4yODktMi43MzJjLjA0NS4zNDguOTA3IDEuNDk2IDIuMDI5IDEuNjUxbC4yNjEuMDE4YzEuMDM2IDAgMS44MS0uODE1IDEuOTAxLTEuMDgyLS4wOTYtLjE4Mi0uNzYyLS42MzQtMi4wMjUtLjgxYTUuODIzIDUuODIzIDAgMDAtLjgyMS0uMDU5Yy0uODEyIDAtMS4yNDMuMTgzLTEuMzQ1LjI4MnptNDMuNjA1LTEuMjQ1Yy4wNzkuNTY0LTEuMDMzIDIuMDctMi40ODQgMi4yNzItMS40NS4yMDItMi42OTEtLjk3NS0yLjc3MS0xLjUzOS0uMDc2LS41NjQgMS4wMzYtMS4xODcgMi40ODYtMS4zODggMS40NS0uMjAzIDIuNjg5LjA5MiAyLjc2OS42NTV6bS0yLjgxOSAyLjU2Yy0xLjM5NiAwLTIuNjAxLTEuMDg2LTIuNy0xLjc5MS0uMTE1LS44NDYgMS4yNzgtMS40ODkgMi43MTItMS42ODguMzE2LS4wNDQuNjI5LS4wNjYuOTMtLjA2NiAxLjIzOCAwIDIuMDU4LjM2MyAyLjE0Ljk0OS4wNTMuMzc5LS4yMzguOTY0LS43MzkgMS40OTItLjMzMS4zNDctMS4wMjYuOTQ4LTEuOTczIDEuMDc5bC0uMzcuMDI1em0uOTQzLTMuMDEzYy0uMjc2IDAtLjU2NC4wMjEtLjg1Ni4wNjEtMS40NDEuMjAxLTIuMzAxLjc3OS0yLjI1OSAxLjA4OS4wNDguMzQxLjk2OCAxLjMzMiAyLjE3MyAxLjMzMmwuMjk3LS4wMjFjLjc4Ny0uMTA5IDEuMzc4LS42MjMgMS42Ni0uOTE5LjQ0My0uNDY1LjYxOS0uOTAzLjU5OC0xLjA1Mi0uMDI4LS4xOTgtLjU2LS40OS0xLjYxMy0uNDl6bTMuOTY1IDMyLjg0M2ExLjU5NCAxLjU5NCAwIDAxLTEuMzI0LTIuNDgzYzMuMzk4LTUuMDc1IDIuNzc2LTEwLjI1IDIuMTc1LTE1LjI1NS0uMjU3LTIuMTMyLS41MjEtNC4zMzctLjQ1My02LjQ1My4wNy0yLjE3Ny4zNDctMy45NzMuNjE0LTUuNzEuMzE3LTIuMDU4LjYxNy00LjAwMi40OTMtNi4zMWExLjU5NSAxLjU5NSAwIDExMy4xODYtLjE3MmMuMTQyIDIuNjM4LS4xOTcgNC44MzgtLjUyNSA2Ljk2Ny0uMjUzIDEuNjQzLS41MTUgMy4zNDItLjU3OCA1LjMyNy0uMDYxIDEuODc0LjE3OCAzLjg2NC40MzEgNS45Ny42NCA1LjMyMiAxLjM2NSAxMS4zNTQtMi42OTEgMTcuNDExYTEuNTk2IDEuNTk2IDAgMDEtMS4zMjguNzA4eiIvPjwvc3ZnPg==;labelPosition=center;align=center;fontFamily=Lucida Console;" parent="1" vertex="1">
          <mxGeometry x="785" y="416" width="70" height="70" as="geometry" />
        </mxCell>
        <mxCell id="5q2C9MI3frL3qA3EBC_F-15" value="API" style="text;html=1;align=center;verticalAlign=middle;resizable=0;points=[];autosize=1;strokeColor=none;fillColor=none;fontFamily=Lucida Console;" parent="1" vertex="1">
          <mxGeometry x="260" y="356" width="50" height="30" as="geometry" />
        </mxCell>
        <mxCell id="6ldMIMyt7JNkO1f6BnIa-53" style="edgeStyle=orthogonalEdgeStyle;rounded=0;orthogonalLoop=1;jettySize=auto;html=1;fillColor=#fa6800;strokeColor=#C73500;flowAnimation=1;strokeWidth=3;fontFamily=Lucida Console;" edge="1" parent="1" source="5q2C9MI3frL3qA3EBC_F-16" target="6ldMIMyt7JNkO1f6BnIa-39">
          <mxGeometry relative="1" as="geometry" />
        </mxCell>
        <mxCell id="6ldMIMyt7JNkO1f6BnIa-55" style="edgeStyle=orthogonalEdgeStyle;rounded=0;orthogonalLoop=1;jettySize=auto;html=1;fillColor=#d80073;strokeColor=#A50040;flowAnimation=1;strokeWidth=2;exitX=0;exitY=0.75;exitDx=0;exitDy=0;fontFamily=Lucida Console;" edge="1" parent="1" source="5q2C9MI3frL3qA3EBC_F-16" target="5q2C9MI3frL3qA3EBC_F-1">
          <mxGeometry relative="1" as="geometry" />
        </mxCell>
        <mxCell id="5q2C9MI3frL3qA3EBC_F-16" value="" style="rounded=1;whiteSpace=wrap;html=1;fontFamily=Lucida Console;" parent="1" vertex="1">
          <mxGeometry x="560" y="280" width="110" height="106" as="geometry" />
        </mxCell>
        <mxCell id="5q2C9MI3frL3qA3EBC_F-20" value="Chats" style="text;html=1;align=center;verticalAlign=middle;resizable=0;points=[];autosize=1;strokeColor=none;fillColor=none;spacing=-1;fontFamily=Lucida Console;" parent="1" vertex="1">
          <mxGeometry x="590" y="361" width="50" height="20" as="geometry" />
        </mxCell>
        <mxCell id="5q2C9MI3frL3qA3EBC_F-25" value="Elasticsearch" style="shape=image;verticalLabelPosition=top;verticalAlign=bottom;imageAspect=0;aspect=fixed;image=data:image/svg+xml,PHN2ZyB4bWxucz0iaHR0cDovL3d3dy53My5vcmcvMjAwMC9zdmciIHZpZXdCb3g9IjAgMCAxMjggMTI4Ij4mI3hhOyAgICA8cGF0aCBmaWxsPSIjMzQzNzQxIiBkPSJNNCA2NGMwIDUuNTM1Ljc3NyAxMC44NzkgMi4wOTggMTZIODRjOC44MzYgMCAxNi03LjE2NCAxNi0xNnMtNy4xNjQtMTYtMTYtMTZINi4wOThBNjMuNzM4IDYzLjczOCAwIDAgMCA0IDY0Ii8+JiN4YTsgICAgPHBhdGggZmlsbD0iI2ZlYzUxNCIgZD0iTTExMS42OTUgMzAuNjQ4QTYxLjQ4NSA2MS40ODUgMCAwIDAgMTE3LjkyMiAyNEMxMDYuMTg4IDkuMzc5IDg4LjE5OSAwIDY4IDAgNDIuNzE1IDAgMjAuOTU3IDE0LjcxIDEwLjU3NCAzNkg5OC4wNGEyMC4xMjMgMjAuMTIzIDAgMCAwIDEzLjY1Mi01LjM1MiIvPiYjeGE7ICAgIDxwYXRoIGZpbGw9IiMwMGJmYjMiIGQ9Ik05OC4wNCA5MkgxMC41NzdDMjAuOTYxIDExMy4yOSA0Mi43MTUgMTI4IDY4IDEyOGMyMC4yIDAgMzguMTg4LTkuMzgzIDQ5LjkyMi0yNGE2MS4xIDYxLjEgMCAwIDAtNi4yMjctNi42NDhBMjAuMTMzIDIwLjEzMyAwIDAgMCA5OC4wNCA5MiIvPiYjeGE7PC9zdmc+;labelPosition=center;align=center;fontFamily=Lucida Console;" parent="1" vertex="1">
          <mxGeometry x="120" y="421" width="60" height="60" as="geometry" />
        </mxCell>
        <mxCell id="6ldMIMyt7JNkO1f6BnIa-57" style="edgeStyle=orthogonalEdgeStyle;rounded=1;orthogonalLoop=1;jettySize=auto;html=1;curved=0;fillColor=#fa6800;strokeColor=#C73500;flowAnimation=1;strokeWidth=3;fontFamily=Lucida Console;" edge="1" parent="1" source="6ldMIMyt7JNkO1f6BnIa-39" target="6ldMIMyt7JNkO1f6BnIa-41">
          <mxGeometry relative="1" as="geometry" />
        </mxCell>
        <mxCell id="6ldMIMyt7JNkO1f6BnIa-39" value="RabbitMQ" style="shape=image;verticalLabelPosition=bottom;verticalAlign=top;imageAspect=0;aspect=fixed;image=data:image/svg+xml,PHN2ZyB4bWxucz0iaHR0cDovL3d3dy53My5vcmcvMjAwMC9zdmciIHZpZXdCb3g9IjAgMCAxMjggMTI4Ij48cGF0aCBmaWxsPSIjZmY2NjAwIiBkPSJNMTE5LjUxNyA1MS4xODhINzkuMjkxYTMuNjQxIDMuNjQxIDAgMCAxLTMuNjQtMy42NDJWNS42MkE1LjYwNSA1LjYwNSAwIDAgMCA3MC4wMjggMEg1NS42NmE1LjYwNiA1LjYwNiAwIDAgMC01LjYyNyA1LjYydjQxLjY0NmEzLjkxMyAzLjkxMyAwIDAgMS0zLjkyIDMuOTI1bC0xMy4xODguMDQ3Yy0yLjE3NiAwLTMuOTcyLTEuNzUtMy45MjYtMy45MjZsLjA5NC00MS42ODdBNS42MDYgNS42MDYgMCAwIDAgMjMuNDY3IDBIOS4xYTUuNjEgNS42MSAwIDAgMC01LjYyNiA1LjYyNVYxMjIuOTljMCAyLjczNyAyLjIyIDUuMDEgNS4wMSA1LjAxaDExMS4wMzNhNS4wMTQgNS4wMTQgMCAwIDAgNS4wMDgtNS4wMTFWNTYuMTk1YTQuOTc1IDQuOTc1IDAgMCAwLTUuMDA4LTUuMDA3ek0xMDAuNjYgOTUuMjQyYTYuNTQ1IDYuNTQ1IDAgMCAxLTYuNTI1IDYuNTI0SDgyLjc5MWE2LjU0NSA2LjU0NSAwIDAgMS02LjUyMy02LjUyNFY4My45YTYuNTQ1IDYuNTQ1IDAgMCAxIDYuNTIzLTYuNTI0aDExLjM0M2E2LjU0NSA2LjU0NSAwIDAgMSA2LjUyNSA2LjUyM3ptMCAwIi8+PC9zdmc+;fontFamily=Lucida Console;" vertex="1" parent="1">
          <mxGeometry x="585" y="486" width="60" height="60" as="geometry" />
        </mxCell>
        <mxCell id="6ldMIMyt7JNkO1f6BnIa-48" style="edgeStyle=orthogonalEdgeStyle;rounded=1;orthogonalLoop=1;jettySize=auto;html=1;exitX=1;exitY=0.5;exitDx=0;exitDy=0;curved=0;fillColor=#0050ef;strokeColor=#001DBC;flowAnimation=1;strokeWidth=3;fontFamily=Lucida Console;" edge="1" parent="1" source="6ldMIMyt7JNkO1f6BnIa-41" target="5q2C9MI3frL3qA3EBC_F-4">
          <mxGeometry relative="1" as="geometry" />
        </mxCell>
        <mxCell id="6ldMIMyt7JNkO1f6BnIa-49" style="edgeStyle=orthogonalEdgeStyle;rounded=1;orthogonalLoop=1;jettySize=auto;html=1;exitX=0;exitY=0.5;exitDx=0;exitDy=0;curved=0;fillColor=#fad7ac;strokeColor=#b46504;flowAnimation=1;strokeWidth=4;fontFamily=Lucida Console;" edge="1" parent="1" source="6ldMIMyt7JNkO1f6BnIa-41" target="5q2C9MI3frL3qA3EBC_F-25">
          <mxGeometry relative="1" as="geometry" />
        </mxCell>
        <mxCell id="6ldMIMyt7JNkO1f6BnIa-41" value="" style="rounded=1;whiteSpace=wrap;html=1;fontFamily=Lucida Console;" vertex="1" parent="1">
          <mxGeometry x="394" y="554" width="116" height="106" as="geometry" />
        </mxCell>
        <mxCell id="6ldMIMyt7JNkO1f6BnIa-45" value="Synchronizers" style="text;html=1;align=center;verticalAlign=middle;resizable=0;points=[];autosize=1;strokeColor=none;fillColor=none;spacing=-1;fontFamily=Lucida Console;" vertex="1" parent="1">
          <mxGeometry x="397" y="635" width="110" height="20" as="geometry" />
        </mxCell>
        <mxCell id="6ldMIMyt7JNkO1f6BnIa-50" value="" style="sketch=0;pointerEvents=1;shadow=0;dashed=0;html=1;strokeColor=none;fillColor=#505050;labelPosition=center;verticalLabelPosition=bottom;verticalAlign=top;outlineConnect=0;align=center;shape=mxgraph.office.servers.server_farm;fillColor=#7FBA42;fontFamily=Lucida Console;" vertex="1" parent="1">
          <mxGeometry x="424" y="574" width="56" height="49" as="geometry" />
        </mxCell>
        <mxCell id="6ldMIMyt7JNkO1f6BnIa-51" value="" style="sketch=0;pointerEvents=1;shadow=0;dashed=0;html=1;strokeColor=none;fillColor=#505050;labelPosition=center;verticalLabelPosition=bottom;verticalAlign=top;outlineConnect=0;align=center;shape=mxgraph.office.servers.server_farm;fillColor=#2072B8;fontFamily=Lucida Console;" vertex="1" parent="1">
          <mxGeometry x="587" y="300.5" width="56" height="49" as="geometry" />
        </mxCell>
        <mxCell id="6ldMIMyt7JNkO1f6BnIa-52" value="" style="sketch=0;pointerEvents=1;shadow=0;dashed=0;html=1;strokeColor=none;fillColor=#505050;labelPosition=center;verticalLabelPosition=bottom;verticalAlign=top;outlineConnect=0;align=center;shape=mxgraph.office.servers.server_farm;fillColor=#2072B8;fontFamily=Lucida Console;" vertex="1" parent="1">
          <mxGeometry x="257" y="300.5" width="56" height="49" as="geometry" />
        </mxCell>
        <mxCell id="6ldMIMyt7JNkO1f6BnIa-59" value="read" style="text;html=1;align=center;verticalAlign=middle;resizable=0;points=[];autosize=1;strokeColor=none;fillColor=none;fontFamily=Lucida Console;" vertex="1" parent="1">
          <mxGeometry x="197" y="451" width="50" height="30" as="geometry" />
        </mxCell>
        <mxCell id="6ldMIMyt7JNkO1f6BnIa-60" value="write" style="text;html=1;align=center;verticalAlign=middle;resizable=0;points=[];autosize=1;strokeColor=none;fillColor=none;fontFamily=Lucida Console;" vertex="1" parent="1">
          <mxGeometry x="155" y="574" width="60" height="30" as="geometry" />
        </mxCell>
        <mxCell id="6ldMIMyt7JNkO1f6BnIa-65" value="frontend" style="text;html=1;align=center;verticalAlign=middle;resizable=0;points=[];autosize=1;strokeColor=none;fillColor=none;fontFamily=Lucida Console;" vertex="1" parent="1">
          <mxGeometry x="622" y="126" width="80" height="30" as="geometry" />
        </mxCell>
        <mxCell id="6ldMIMyt7JNkO1f6BnIa-66" value="backend" style="text;html=1;align=center;verticalAlign=middle;resizable=0;points=[];autosize=1;strokeColor=none;fillColor=none;fontFamily=Lucida Console;" vertex="1" parent="1">
          <mxGeometry x="80" y="290" width="70" height="30" as="geometry" />
        </mxCell>
        <mxCell id="6ldMIMyt7JNkO1f6BnIa-67" value="database" style="text;html=1;align=center;verticalAlign=middle;resizable=0;points=[];autosize=1;strokeColor=none;fillColor=none;fontFamily=Lucida Console;" vertex="1" parent="1">
          <mxGeometry x="915" y="341" width="80" height="30" as="geometry" />
        </mxCell>
      </root>
    </mxGraphModel>
  </diagram>
</mxfile>
